<mxfile host="app.diagrams.net" modified="2022-12-11T09:50:08.220Z" agent="5.0 (Windows NT 10.0; Win64; x64) AppleWebKit/537.36 (KHTML, like Gecko) Chrome/108.0.0.0 Safari/537.36 Edg/108.0.1462.46" version="20.6.2" etag="11dh6OKCFcj3tXJox4Ig" type="github">
  <diagram id="reFP6C4L555bnypwzXP4" name="第 1 页">
    <mxGraphModel dx="862" dy="-693" grid="1" gridSize="10" guides="1" tooltips="1" connect="1" arrows="1" fold="1" page="1" pageScale="1" pageWidth="827" pageHeight="1169" math="0" shadow="0">
      <root>
        <mxCell id="0" />
        <mxCell id="1" parent="0" />
        <mxCell id="zYq9X8G2UtDYo9-ewB3V-162" value="请求" style="rounded=1;whiteSpace=wrap;html=1;fontSize=12;fillColor=#fff2cc;strokeColor=#d6b656;" vertex="1" parent="1">
          <mxGeometry x="320" y="1310" width="120" height="55" as="geometry" />
        </mxCell>
        <mxCell id="zYq9X8G2UtDYo9-ewB3V-163" value="共享缓存" style="rounded=1;whiteSpace=wrap;html=1;fontSize=12;fillColor=#f8cecc;strokeColor=#b85450;" vertex="1" parent="1">
          <mxGeometry x="40" y="1410" width="120" height="60" as="geometry" />
        </mxCell>
        <mxCell id="zYq9X8G2UtDYo9-ewB3V-164" value="本地缓存" style="rounded=1;whiteSpace=wrap;html=1;fontSize=12;fillColor=#d5e8d4;strokeColor=#82b366;" vertex="1" parent="1">
          <mxGeometry x="690" y="1410" width="120" height="60" as="geometry" />
        </mxCell>
        <mxCell id="zYq9X8G2UtDYo9-ewB3V-188" value="" style="edgeStyle=orthogonalEdgeStyle;rounded=0;orthogonalLoop=1;jettySize=auto;html=1;strokeColor=#97D077;strokeWidth=2;fontSize=12;endArrow=classic;endFill=1;" edge="1" parent="1" source="zYq9X8G2UtDYo9-ewB3V-165" target="zYq9X8G2UtDYo9-ewB3V-164">
          <mxGeometry relative="1" as="geometry" />
        </mxCell>
        <mxCell id="zYq9X8G2UtDYo9-ewB3V-199" value="" style="edgeStyle=orthogonalEdgeStyle;rounded=0;orthogonalLoop=1;jettySize=auto;html=1;strokeColor=#97D077;strokeWidth=2;fontSize=12;endArrow=classic;endFill=1;" edge="1" parent="1" source="zYq9X8G2UtDYo9-ewB3V-165" target="zYq9X8G2UtDYo9-ewB3V-197">
          <mxGeometry relative="1" as="geometry" />
        </mxCell>
        <mxCell id="zYq9X8G2UtDYo9-ewB3V-165" value="定时器" style="rounded=1;whiteSpace=wrap;html=1;fontSize=12;fillColor=#d5e8d4;strokeColor=#82b366;" vertex="1" parent="1">
          <mxGeometry x="600" y="1410" width="70" height="60" as="geometry" />
        </mxCell>
        <mxCell id="zYq9X8G2UtDYo9-ewB3V-176" value="" style="group" vertex="1" connectable="0" parent="1">
          <mxGeometry x="320" y="1560" width="120" height="260" as="geometry" />
        </mxCell>
        <mxCell id="zYq9X8G2UtDYo9-ewB3V-177" value="请求推荐" style="rounded=1;whiteSpace=wrap;html=1;fontSize=12;fillColor=#dae8fc;strokeColor=#6c8ebf;" vertex="1" parent="zYq9X8G2UtDYo9-ewB3V-176">
          <mxGeometry width="120" height="60" as="geometry" />
        </mxCell>
        <mxCell id="zYq9X8G2UtDYo9-ewB3V-178" value="完成" style="rounded=1;whiteSpace=wrap;html=1;fontSize=12;fillColor=#f5f5f5;fontColor=#333333;strokeColor=#666666;" vertex="1" parent="zYq9X8G2UtDYo9-ewB3V-176">
          <mxGeometry y="160" width="120" height="60" as="geometry" />
        </mxCell>
        <mxCell id="zYq9X8G2UtDYo9-ewB3V-179" value="" style="edgeStyle=orthogonalEdgeStyle;rounded=0;orthogonalLoop=1;jettySize=auto;html=1;fontSize=12;" edge="1" parent="zYq9X8G2UtDYo9-ewB3V-176" source="zYq9X8G2UtDYo9-ewB3V-180" target="zYq9X8G2UtDYo9-ewB3V-178">
          <mxGeometry relative="1" as="geometry" />
        </mxCell>
        <mxCell id="zYq9X8G2UtDYo9-ewB3V-180" value="请求详情" style="rounded=1;whiteSpace=wrap;html=1;fontSize=12;fillColor=#dae8fc;strokeColor=#6c8ebf;" vertex="1" parent="zYq9X8G2UtDYo9-ewB3V-176">
          <mxGeometry y="80" width="120" height="60" as="geometry" />
        </mxCell>
        <mxCell id="zYq9X8G2UtDYo9-ewB3V-181" value="" style="edgeStyle=orthogonalEdgeStyle;rounded=0;orthogonalLoop=1;jettySize=auto;html=1;fontSize=12;" edge="1" parent="zYq9X8G2UtDYo9-ewB3V-176" source="zYq9X8G2UtDYo9-ewB3V-177" target="zYq9X8G2UtDYo9-ewB3V-180">
          <mxGeometry relative="1" as="geometry" />
        </mxCell>
        <mxCell id="zYq9X8G2UtDYo9-ewB3V-185" value="" style="endArrow=classic;html=1;rounded=0;fontSize=12;exitX=0.25;exitY=1;exitDx=0;exitDy=0;entryX=0.5;entryY=0;entryDx=0;entryDy=0;strokeColor=#FF6666;strokeWidth=2;endFill=1;" edge="1" parent="1" source="zYq9X8G2UtDYo9-ewB3V-162" target="zYq9X8G2UtDYo9-ewB3V-163">
          <mxGeometry width="50" height="50" relative="1" as="geometry">
            <mxPoint x="330" y="1500" as="sourcePoint" />
            <mxPoint x="380" y="1450" as="targetPoint" />
            <Array as="points">
              <mxPoint x="350" y="1380" />
              <mxPoint x="100" y="1380" />
            </Array>
          </mxGeometry>
        </mxCell>
        <mxCell id="zYq9X8G2UtDYo9-ewB3V-187" value="" style="endArrow=classic;html=1;rounded=0;strokeColor=#97D077;strokeWidth=2;fontSize=12;exitX=0.75;exitY=1;exitDx=0;exitDy=0;entryX=0.5;entryY=0;entryDx=0;entryDy=0;" edge="1" parent="1" source="zYq9X8G2UtDYo9-ewB3V-162" target="zYq9X8G2UtDYo9-ewB3V-164">
          <mxGeometry width="50" height="50" relative="1" as="geometry">
            <mxPoint x="330" y="1500" as="sourcePoint" />
            <mxPoint x="380" y="1450" as="targetPoint" />
            <Array as="points">
              <mxPoint x="410" y="1380" />
              <mxPoint x="750" y="1380" />
            </Array>
          </mxGeometry>
        </mxCell>
        <mxCell id="zYq9X8G2UtDYo9-ewB3V-189" value="" style="endArrow=classic;html=1;rounded=0;strokeColor=#FF6666;strokeWidth=2;fontSize=12;exitX=1;exitY=0.5;exitDx=0;exitDy=0;dashed=1;entryX=0;entryY=0.5;entryDx=0;entryDy=0;dashPattern=1 1;startArrow=classic;startFill=1;" edge="1" parent="1" source="zYq9X8G2UtDYo9-ewB3V-163" target="zYq9X8G2UtDYo9-ewB3V-166">
          <mxGeometry width="50" height="50" relative="1" as="geometry">
            <mxPoint x="400" y="1510" as="sourcePoint" />
            <mxPoint x="311.4000000000001" y="1434.96" as="targetPoint" />
            <Array as="points">
              <mxPoint x="240" y="1440" />
              <mxPoint x="240" y="1420" />
            </Array>
          </mxGeometry>
        </mxCell>
        <mxCell id="zYq9X8G2UtDYo9-ewB3V-192" value="" style="endArrow=classic;html=1;rounded=0;dashed=1;strokeColor=#97D077;strokeWidth=2;fontSize=12;exitX=0;exitY=0.5;exitDx=0;exitDy=0;entryX=1;entryY=0.5;entryDx=0;entryDy=0;dashPattern=1 1;startArrow=classic;startFill=1;" edge="1" parent="1" source="zYq9X8G2UtDYo9-ewB3V-165" target="zYq9X8G2UtDYo9-ewB3V-166">
          <mxGeometry width="50" height="50" relative="1" as="geometry">
            <mxPoint x="400" y="1510" as="sourcePoint" />
            <mxPoint x="450.1400000000001" y="1434.32" as="targetPoint" />
            <Array as="points">
              <mxPoint x="560" y="1440" />
              <mxPoint x="560" y="1470" />
              <mxPoint x="510" y="1470" />
              <mxPoint x="510" y="1420" />
            </Array>
          </mxGeometry>
        </mxCell>
        <mxCell id="zYq9X8G2UtDYo9-ewB3V-194" value="" style="endArrow=classic;html=1;rounded=0;strokeColor=#97D077;strokeWidth=2;fontSize=12;exitX=0.5;exitY=1;exitDx=0;exitDy=0;entryX=1;entryY=0.5;entryDx=0;entryDy=0;" edge="1" parent="1" source="zYq9X8G2UtDYo9-ewB3V-164" target="zYq9X8G2UtDYo9-ewB3V-177">
          <mxGeometry width="50" height="50" relative="1" as="geometry">
            <mxPoint x="400" y="1590" as="sourcePoint" />
            <mxPoint x="450" y="1540" as="targetPoint" />
            <Array as="points">
              <mxPoint x="750" y="1590" />
            </Array>
          </mxGeometry>
        </mxCell>
        <mxCell id="zYq9X8G2UtDYo9-ewB3V-196" value="" style="endArrow=classic;html=1;rounded=0;strokeColor=#FF6666;strokeWidth=2;fontSize=12;exitX=0.5;exitY=1;exitDx=0;exitDy=0;entryX=0;entryY=0.5;entryDx=0;entryDy=0;" edge="1" parent="1" source="zYq9X8G2UtDYo9-ewB3V-163" target="zYq9X8G2UtDYo9-ewB3V-177">
          <mxGeometry width="50" height="50" relative="1" as="geometry">
            <mxPoint x="400" y="1510" as="sourcePoint" />
            <mxPoint x="250" y="1580" as="targetPoint" />
            <Array as="points">
              <mxPoint x="100" y="1590" />
            </Array>
          </mxGeometry>
        </mxCell>
        <mxCell id="zYq9X8G2UtDYo9-ewB3V-197" value="Redis集群" style="rounded=1;whiteSpace=wrap;html=1;fontSize=12;fillColor=#d5e8d4;strokeColor=#82b366;" vertex="1" parent="1">
          <mxGeometry x="600" y="1490" width="70" height="60" as="geometry" />
        </mxCell>
        <mxCell id="zYq9X8G2UtDYo9-ewB3V-200" value="优化前" style="text;html=1;strokeColor=none;fillColor=none;align=center;verticalAlign=middle;whiteSpace=wrap;rounded=0;dashed=1;fontSize=12;fontColor=#FF6666;fontStyle=1" vertex="1" parent="1">
          <mxGeometry x="180" y="1350" width="60" height="30" as="geometry" />
        </mxCell>
        <mxCell id="zYq9X8G2UtDYo9-ewB3V-201" value="优化后" style="text;html=1;strokeColor=none;fillColor=none;align=center;verticalAlign=middle;whiteSpace=wrap;rounded=0;dashed=1;fontSize=12;fontColor=#97D077;fontStyle=1" vertex="1" parent="1">
          <mxGeometry x="535" y="1350" width="60" height="30" as="geometry" />
        </mxCell>
        <mxCell id="zYq9X8G2UtDYo9-ewB3V-168" value="媒资服务" style="rounded=1;whiteSpace=wrap;html=1;fontSize=12;fillColor=#dae8fc;strokeColor=#6c8ebf;" vertex="1" parent="1">
          <mxGeometry x="320" y="1450" width="120" height="40" as="geometry" />
        </mxCell>
        <mxCell id="zYq9X8G2UtDYo9-ewB3V-166" value="DB" style="rounded=1;whiteSpace=wrap;html=1;fontSize=12;fillColor=#dae8fc;strokeColor=#6c8ebf;" vertex="1" parent="1">
          <mxGeometry x="320" y="1400" width="120" height="40" as="geometry" />
        </mxCell>
        <mxCell id="zYq9X8G2UtDYo9-ewB3V-167" value="推荐服务" style="rounded=1;whiteSpace=wrap;html=1;fontSize=12;fillColor=#dae8fc;strokeColor=#6c8ebf;" vertex="1" parent="1">
          <mxGeometry x="320" y="1500" width="120" height="40" as="geometry" />
        </mxCell>
        <mxCell id="zYq9X8G2UtDYo9-ewB3V-202" value="" style="endArrow=classic;html=1;rounded=0;dashed=1;dashPattern=1 1;strokeColor=#FF6666;strokeWidth=2;fontSize=12;fontColor=#FFFFFF;entryX=0;entryY=0.5;entryDx=0;entryDy=0;" edge="1" parent="1" target="zYq9X8G2UtDYo9-ewB3V-168">
          <mxGeometry width="50" height="50" relative="1" as="geometry">
            <mxPoint x="240" y="1440" as="sourcePoint" />
            <mxPoint x="450" y="1460" as="targetPoint" />
            <Array as="points">
              <mxPoint x="240" y="1470" />
            </Array>
          </mxGeometry>
        </mxCell>
        <mxCell id="zYq9X8G2UtDYo9-ewB3V-203" value="" style="endArrow=classic;html=1;rounded=0;dashed=1;dashPattern=1 1;strokeColor=#97D077;strokeWidth=2;fontSize=12;fontColor=#FFFFFF;" edge="1" parent="1">
          <mxGeometry width="50" height="50" relative="1" as="geometry">
            <mxPoint x="510" y="1440" as="sourcePoint" />
            <mxPoint x="440" y="1470" as="targetPoint" />
            <Array as="points">
              <mxPoint x="510" y="1470" />
            </Array>
          </mxGeometry>
        </mxCell>
        <mxCell id="zYq9X8G2UtDYo9-ewB3V-204" value="" style="endArrow=classic;html=1;rounded=0;dashed=1;dashPattern=1 1;strokeColor=#97D077;strokeWidth=2;fontSize=12;fontColor=#FFFFFF;entryX=1;entryY=0.5;entryDx=0;entryDy=0;" edge="1" parent="1" target="zYq9X8G2UtDYo9-ewB3V-167">
          <mxGeometry width="50" height="50" relative="1" as="geometry">
            <mxPoint x="510" y="1470" as="sourcePoint" />
            <mxPoint x="450" y="1460" as="targetPoint" />
            <Array as="points">
              <mxPoint x="510" y="1520" />
            </Array>
          </mxGeometry>
        </mxCell>
        <mxCell id="zYq9X8G2UtDYo9-ewB3V-205" value="①" style="text;html=1;strokeColor=none;fillColor=none;align=center;verticalAlign=middle;whiteSpace=wrap;rounded=0;dashed=1;fontSize=12;fontColor=#FF6666;fontStyle=1" vertex="1" parent="1">
          <mxGeometry x="250" y="1390" width="60" height="30" as="geometry" />
        </mxCell>
        <mxCell id="zYq9X8G2UtDYo9-ewB3V-206" value="②" style="text;html=1;strokeColor=none;fillColor=none;align=center;verticalAlign=middle;whiteSpace=wrap;rounded=0;dashed=1;fontSize=12;fontColor=#FF6666;fontStyle=1" vertex="1" parent="1">
          <mxGeometry x="250" y="1440" width="60" height="30" as="geometry" />
        </mxCell>
        <mxCell id="zYq9X8G2UtDYo9-ewB3V-207" value="①" style="text;html=1;strokeColor=none;fillColor=none;align=center;verticalAlign=middle;whiteSpace=wrap;rounded=0;dashed=1;fontSize=12;fontColor=#97D077;fontStyle=1" vertex="1" parent="1">
          <mxGeometry x="445" y="1390" width="60" height="30" as="geometry" />
        </mxCell>
        <mxCell id="zYq9X8G2UtDYo9-ewB3V-208" value="②④" style="text;html=1;strokeColor=none;fillColor=none;align=center;verticalAlign=middle;whiteSpace=wrap;rounded=0;dashed=1;fontSize=12;fontColor=#97D077;fontStyle=1" vertex="1" parent="1">
          <mxGeometry x="445" y="1440" width="60" height="30" as="geometry" />
        </mxCell>
        <mxCell id="zYq9X8G2UtDYo9-ewB3V-209" value="③" style="text;html=1;strokeColor=none;fillColor=none;align=center;verticalAlign=middle;whiteSpace=wrap;rounded=0;dashed=1;fontSize=12;fontColor=#97D077;fontStyle=1" vertex="1" parent="1">
          <mxGeometry x="445" y="1490" width="60" height="30" as="geometry" />
        </mxCell>
      </root>
    </mxGraphModel>
  </diagram>
</mxfile>
